<svg xmlns="http://www.w3.org/2000/svg" viewBox="0 0 100 100">
  <!-- Gradient definitions -->
  <defs>
    <linearGradient id="trophy-gradient" x1="0%" y1="0%" x2="100%" y2="100%">
      <stop offset="0%" style="stop-color:#6366f1;stop-opacity:1" />
      <stop offset="50%" style="stop-color:#8b5cf6;stop-opacity:1" />
      <stop offset="100%" style="stop-color:#d946ef;stop-opacity:1" />
    </linearGradient>
    <linearGradient id="circuit-gradient" x1="0%" y1="0%" x2="100%" y2="100%">
      <stop offset="0%" style="stop-color:#10b981;stop-opacity:1" />
      <stop offset="100%" style="stop-color:#14b8a6;stop-opacity:1" />
    </linearGradient>
  </defs>
  
  <!-- Trophy cup -->
  <path fill="url(#trophy-gradient)" d="M 50 20 L 40 25 L 35 40 L 35 55 Q 35 65 50 70 Q 65 65 65 55 L 65 40 L 60 25 Z"/>
  
  <!-- Trophy handles -->
  <path fill="url(#trophy-gradient)" d="M 35 35 Q 25 35 22 40 Q 25 45 35 45" opacity="0.8"/>
  <path fill="url(#trophy-gradient)" d="M 65 35 Q 75 35 78 40 Q 75 45 65 45" opacity="0.8"/>
  
  <!-- Trophy base -->
  <rect x="42" y="70" width="16" height="8" rx="2" fill="url(#trophy-gradient)"/>
  <rect x="35" y="78" width="30" height="6" rx="3" fill="url(#trophy-gradient)"/>
  
  <!-- Circuit pattern on trophy -->
  <circle cx="50" cy="45" r="3" fill="url(#circuit-gradient)"/>
  <line x1="50" y1="45" x2="45" y2="35" stroke="url(#circuit-gradient)" stroke-width="1.5"/>
  <line x1="50" y1="45" x2="55" y2="35" stroke="url(#circuit-gradient)" stroke-width="1.5"/>
  <line x1="50" y1="45" x2="50" y2="55" stroke="url(#circuit-gradient)" stroke-width="1.5"/>
  <circle cx="45" cy="35" r="2" fill="#10b981"/>
  <circle cx="55" cy="35" r="2" fill="#10b981"/>
  <circle cx="50" cy="55" r="2" fill="#10b981"/>
  
  <!-- Stars -->
  <path fill="#fbbf24" d="M 50 15 L 51 18 L 54 18 L 52 20 L 53 23 L 50 21 L 47 23 L 48 20 L 46 18 L 49 18 Z" opacity="0.9"/>
</svg>
